<svg xmlns="http://www.w3.org/2000/svg" width="82" height="74" viewBox="0 0 82 74" fill="none">
    <g filter="url(#filter0_d_35_9)">
        <path
            d="M46 5L46 -2.18557e-07L36 2.18557e-07L36 5L41 5L46 5ZM37.4645 63.5355C39.4171 65.4882 42.5829 65.4882 44.5355 63.5355L76.3553 31.7157C78.308 29.7631 78.308 26.5973 76.3553 24.6447C74.4027 22.692 71.2369 22.692 69.2843 24.6447L41 52.9289L12.7157 24.6447C10.7631 22.692 7.59728 22.692 5.64466 24.6447C3.69204 26.5973 3.69204 29.7631 5.64466 31.7157L37.4645 63.5355ZM41 5L36 5L36 60L41 60L46 60L46 5L41 5Z"
            fill="black" />
    </g>
</svg>