<svg width="55" height="52" viewBox="0 0 55 52" fill="none" xmlns="http://www.w3.org/2000/svg">
<path d="M27.4359 13.0187H31.6338M27.4359 21.554H31.6338M10.6443 30.0892H31.6338M10.6443 38.6245H31.6338M40.0296 13.0187H49.4748C51.2128 13.0187 52.6232 14.4526 52.6232 16.2194V42.8921C52.6232 44.5899 51.9598 46.2181 50.7789 47.4187C49.5981 48.6192 47.9964 49.2936 46.3264 49.2936M40.0296 13.0187V42.8921C40.0296 44.5899 40.693 46.2181 41.8739 47.4187C43.0548 48.6192 44.6564 49.2936 46.3264 49.2936M40.0296 13.0187V5.55034C40.0296 3.78353 38.6191 2.34961 36.8812 2.34961H5.39695C3.65903 2.34961 2.24854 3.78353 2.24854 5.55034V42.8921C2.24854 44.5899 2.91195 46.2181 4.09284 47.4187C5.27372 48.6192 6.87535 49.2936 8.54537 49.2936H46.3264M10.6443 13.0187H19.0401V21.554H10.6443V13.0187Z" stroke="black" stroke-width="4" stroke-linecap="round" stroke-linejoin="round"/>
</svg>
