<svg width="87" height="58" viewBox="0 0 87 58" fill="none" xmlns="http://www.w3.org/2000/svg">
<rect x="18" y="16" width="16" height="42" fill="#BFBFBA"/>
<rect x="61" y="49" width="16" height="49" transform="rotate(-180 61 49)" fill="#91918D"/>
<rect x="87" y="49" width="15" height="49" transform="rotate(-180 87 49)" fill="#666663"/>
<path d="M45 58C45 58 45 -25.5598 45 16.2201C45 58 87 61.928 87 16.2201C87 -29.4878 87 58 87 58L45 58Z" fill="#C89E6B"/>
<path d="M61 -8.31462e-06C45.2118 7.57199e-05 45.2118 16 45.2118 16L-6.99382e-07 16L0 0.000316365L61 -8.31462e-06Z" fill="#2C3E57"/>
</svg>
